<svg id="Layer_1" data-name="Layer 1" xmlns="http://www.w3.org/2000/svg" viewBox="0 0 115.07 154.4"><defs><style>.cls-1{font-size:133.76px;font-family:AllRoundGothic-Demi, All Round Gothic;font-weight:300;letter-spacing:0.05em;}.cls-1,.cls-2,.cls-3{fill:#fff;}.cls-2{stroke:#fff;stroke-width:0.25px;}.cls-2,.cls-3{stroke-miterlimit:10;}.cls-3{stroke:#371234;stroke-width:0.44px;}</style></defs><text x="-28.18" y="-23.38"/><text class="cls-1" transform="translate(0 120.02)">a</text><path class="cls-2" d="M88.06,38.3A27.52,27.52,0,0,0,92,52.5c.16.27.32.54.5.81h.11a26.9,26.9,0,0,1,4.14.31,27.68,27.68,0,0,0-2.09-27,27.79,27.79,0,0,0-2.35-3.05,27.37,27.37,0,0,0-3.71,9.33A28,28,0,0,0,88.06,38.3Z" transform="translate(-28.18 -23.38)"/><path class="cls-2" d="M87.2,62.44q.43.75.9,1.47c.05.07.1.14.14.21l.37.54.44.61.19.25c.1.14.21.27.31.4l.15.19.34.42.12.14.39.45.19.21.31.34.33.34.18.19.22.22.36.34.26.26.32.29.26.23.32.28.24.2.38.31.31.25.45.35.56.41.64.44.23.15.44.29.15.09.52.31.53.31.34.19a3.9,3.9,0,0,1,.35.19l.4.2.33.16.36.18.37.17.37.16c.39.17.8.34,1.2.49l.31.12.36.12a27,27,0,0,0,5.47,1.31,2.48,2.48,0,0,0,.27,0l.41,0,.76.08.48,0c.59,0,1.17.06,1.77.06h.54c.44,0,.89,0,1.33-.06a27.89,27.89,0,0,0,6.5-1.22q-.12-.59-.27-1.14c0-.1-.05-.21-.08-.31s0-.18-.07-.26l-.09-.31a.76.76,0,0,0,0-.11h0a.65.65,0,0,0,0-.13c0-.09,0-.19-.08-.28-.11-.35-.23-.69-.35-1l-.15-.43c-.06-.15-.12-.3-.17-.44l-.2-.47c-.06-.16-.13-.32-.2-.48s-.17-.38-.26-.56l-.27-.56-.22-.43c-.18-.36-.38-.71-.58-1.06l-.17-.29-.23-.39-.33-.52-.41-.6c-.13-.2-.27-.4-.41-.59,0,0,0,0,0,0l-.43-.57v0c-.14-.19-.29-.37-.44-.55l-.43-.53,0-.06c-.15-.17-.3-.35-.46-.52l0,0h0l-.09-.09c0,.1-.07.2-.11.3l0-.07c0-.08,0-.16.08-.23l-.11-.13-.54-.57-.15-.15-.32-.32-.07-.06c-.11-.12-.24-.23-.36-.35-.42-.4-.85-.78-1.3-1.15l-.37-.3,0,0h0l0,0-.46-.36,0,0-.45-.34-.28-.19-.31-.22-.56-.38-.72-.45-.41-.24-.2-.12-.51-.29,0,0-.56-.29-.71-.36-.24-.11c-.4-.19-.8-.37-1.21-.53l-.41-.17-.51-.19a26.62,26.62,0,0,0-3.33-1l-.62-.14-.37-.07-.29-.06-.83-.13a26.9,26.9,0,0,0-4.14-.31h-.11l-1.11,0-.3.44c-.1.14-.19.28-.28.43l0,0-.2.32s-.07.11-.11.17l-.24.4-.33.58c-.07.11-.13.23-.19.34h0l-.21.4-.19.38c0,.11-.11.21-.16.32l-.27.59c-.06.11-.1.22-.15.33v0c-.06.12-.11.24-.16.36h0l-.21.49-.21.56h0c-.12.33-.24.66-.35,1-.05.17-.11.33-.16.5-.11.37-.22.74-.32,1.11C87.25,62.23,87.23,62.33,87.2,62.44Zm26,4.09.15.21-.15.11Zm-1.61,7.88c0,.34.07.68.11,1C111.64,75.09,111.6,74.75,111.57,74.41Zm-6.06-10.17A1.45,1.45,0,1,1,107,65.69,1.45,1.45,0,0,1,105.51,64.24Z" transform="translate(-28.18 -23.38)"/><path class="cls-3" d="M86.37,69.21c0,.38,0,.75,0,1.13A27.6,27.6,0,0,0,87,75.27q.21,1,.51,2h0l.53.2q1.22.48,2.37,1A26.45,26.45,0,0,1,93.14,80a27.71,27.71,0,0,1,11.42,15.21h0a27.57,27.57,0,0,1,1.18,8q0,1.11-.09,2.19c0,.45-.08.88-.13,1.32a27.91,27.91,0,0,0,1.78-2.28h0a27.23,27.23,0,0,0,3.8-7.72l.18-.63,0-.08c0-.21.11-.42.16-.63.12-.44.22-.89.31-1.35h0c0-.23.09-.46.13-.69l.12-.69.09-.7c0-.24.06-.47.08-.71,0-.67.08-1.35.08-2a27,27,0,0,0-2-10.11,24.25,24.25,0,0,0-1.28-2.73l-.76-.08-.41,0a2.48,2.48,0,0,1-.27,0,27,27,0,0,1-5.47-1.31l-.36-.12-.31-.12c-.4-.15-.81-.32-1.2-.49L99.9,74l-.37-.17-.36-.18-.33-.16-.4-.2a3.9,3.9,0,0,0-.35-.19l-.34-.19-.53-.31-.52-.31-.15-.09-.44-.29-.23-.15-.64-.44-.56-.41-.45-.35-.31-.25L93.54,70l-.24-.2L93,69.54l-.26-.23L92.4,69a3.19,3.19,0,0,1-.26-.26l-.36-.34-.22-.22L91.38,68l-.33-.34-.31-.34-.19-.21-.39-.45L90,66.53l-.34-.42-.15-.19c-.1-.13-.21-.26-.31-.4l-.19-.25-.44-.61-.37-.54-.14.11-.35.26-.36.25-.73.49A27.52,27.52,0,0,0,86.37,69.21Z" transform="translate(-28.18 -23.38)"/></svg>